<?xml version="1.0" standalone="no"?>
<!DOCTYPE svg PUBLIC "-//W3C//DTD SVG 20010904//EN"
 "http://www.w3.org/TR/2001/REC-SVG-20010904/DTD/svg10.dtd">
<svg version="1.0" xmlns="http://www.w3.org/2000/svg"
 width="512.000000pt" height="512.000000pt" viewBox="0 0 512.000000 512.000000"
 preserveAspectRatio="xMidYMid meet">
<metadata>
Created by potrace 1.14, written by Peter Selinger 2001-2017
</metadata>
<g transform="translate(0.000000,512.000000) scale(0.100000,-0.100000)"
fill="#000000" stroke="none">
<path d="M728 4379 c-125 -18 -270 -103 -346 -201 -50 -65 -95 -161 -113 -243
-19 -84 -21 -2658 -2 -2750 7 -33 31 -98 54 -144 68 -139 180 -233 339 -287
53 -18 123 -19 1900 -19 1777 0 1847 1 1900 19 159 54 271 148 339 287 23 46
47 111 54 144 9 46 12 368 12 1375 0 1438 3 1371 -60 1505 -64 138 -174 238
-325 293 l-75 27 -1810 1 c-995 1 -1835 -2 -1867 -7z m3714 -146 c139 -53 225
-144 274 -293 17 -52 19 -125 22 -1290 2 -777 -1 -1279 -7 -1354 -8 -97 -16
-130 -40 -182 -58 -125 -179 -220 -310 -244 -74 -14 -3568 -14 -3642 0 -131
24 -252 119 -310 244 -24 52 -32 85 -40 182 -6 75 -9 577 -7 1354 3 1165 5
1238 22 1290 58 175 174 279 346 310 25 4 853 7 1840 6 l1795 -1 57 -22z"/>
<path d="M2438 3770 c-277 -50 -513 -276 -574 -546 -25 -115 -16 -303 20 -404
81 -227 268 -402 493 -461 107 -28 279 -28 384 0 140 36 264 115 363 231 62
72 98 137 132 235 26 74 28 92 28 230 0 138 -2 156 -28 230 -33 97 -70 162
-133 237 -94 112 -226 198 -358 234 -70 18 -259 27 -327 14z m292 -147 c194
-53 364 -225 415 -419 8 -32 15 -98 15 -147 0 -171 -48 -286 -175 -413 -124
-126 -242 -174 -423 -174 -166 0 -284 51 -407 174 -129 129 -175 239 -175 416
0 157 45 271 152 386 163 175 378 238 598 177z"/>
<path d="M2328 3414 c-37 -20 -58 -63 -58 -120 0 -39 5 -51 34 -80 30 -30 40
-34 86 -34 46 0 56 4 85 33 41 41 52 90 31 140 -27 67 -114 96 -178 61z"/>
<path d="M2718 3414 c-36 -19 -58 -63 -58 -114 0 -73 51 -120 131 -120 33 0
47 6 74 33 43 43 52 79 34 131 -26 73 -113 107 -181 70z"/>
<path d="M2825 3063 c-12 -55 -28 -83 -60 -112 -48 -42 -98 -56 -201 -56 -81
0 -97 3 -150 30 -61 32 -103 85 -104 132 0 19 -4 22 -27 18 -16 -2 -54 -7 -87
-11 l-59 -6 7 -56 c23 -206 215 -344 457 -330 217 13 365 149 394 361 l6 47
-70 0 c-38 0 -76 3 -85 6 -11 4 -17 -2 -21 -23z"/>
<path d="M1070 3184 c0 -526 -4 -585 -42 -605 -51 -27 -78 21 -78 142 l0 79
-150 0 -150 0 0 -78 c0 -91 29 -215 61 -264 53 -81 154 -120 309 -120 54 0
118 3 142 7 110 19 188 71 227 155 l26 55 3 568 3 567 -176 0 -175 0 0 -506z"/>
<path d="M3680 3685 c0 -3 54 -194 120 -425 l120 -419 0 -251 0 -250 170 0
170 0 0 250 0 250 120 408 c67 224 123 415 126 425 5 16 -7 17 -159 17 -163 0
-165 0 -170 -22 -15 -62 -67 -342 -73 -391 -4 -31 -10 -57 -13 -57 -4 0 -15
55 -24 123 -9 67 -27 173 -38 235 l-21 112 -164 0 c-90 0 -164 -2 -164 -5z"/>
<path d="M580 1795 l0 -405 205 0 206 0 -3 83 -3 82 -92 3 -93 3 0 319 0 320
-110 0 -110 0 0 -405z"/>
<path d="M1050 1795 l0 -405 180 0 180 0 0 85 0 85 -75 0 -75 0 0 85 0 85 65
0 65 0 0 80 0 80 -65 0 -66 0 3 73 3 72 68 3 67 3 0 79 0 80 -175 0 -175 0 0
-405z"/>
<path d="M1506 1838 c-26 -200 -50 -382 -53 -405 l-6 -43 111 0 110 0 7 75 7
75 33 0 c31 0 33 -2 39 -46 3 -26 6 -60 6 -75 l0 -29 110 0 c81 0 110 3 110
13 1 6 -25 189 -57 405 l-58 392 -155 0 -156 0 -48 -362z m227 -25 l13 -123
-34 0 c-30 0 -34 3 -29 23 3 12 11 74 18 137 7 63 14 108 16 100 2 -8 9 -70
16 -137z"/>
<path d="M2030 1795 l0 -405 110 0 110 0 0 181 c0 180 0 180 22 177 31 -4 36
-30 37 -205 l1 -153 101 0 101 0 -4 168 c-5 186 -11 208 -65 239 l-35 20 31 6
c49 10 65 46 65 146 0 101 -14 147 -53 185 -40 38 -82 45 -263 46 l-158 0 0
-405z m268 235 c8 -16 11 -43 8 -73 -6 -57 -11 -67 -37 -67 -17 0 -19 8 -19
86 0 76 2 85 17 82 10 -2 23 -14 31 -28z"/>
<path d="M2580 1795 l0 -405 90 0 90 0 2 177 3 176 71 -174 71 -174 91 -3 92
-3 0 406 0 405 -90 0 -90 0 0 -172 -1 -173 -72 173 -71 172 -93 0 -93 0 0
-405z"/>
<path d="M3170 1795 l0 -405 105 0 105 0 0 405 0 405 -105 0 -105 0 0 -405z"/>
<path d="M3452 1798 l3 -403 90 0 90 0 5 169 5 168 69 -171 69 -171 94 0 93 0
0 405 0 405 -90 0 -90 0 -2 -174 -3 -175 -71 172 -72 172 -96 3 -96 3 2 -403z"/>
<path d="M4144 2176 c-36 -19 -57 -38 -75 -68 -24 -43 -24 -45 -24 -313 l0
-270 27 -46 c40 -67 84 -84 223 -84 102 0 113 2 156 27 69 41 79 74 79 258 l0
150 -125 0 -125 0 0 -65 0 -65 30 0 30 0 0 -62 c0 -35 -6 -74 -13 -88 -14 -28
-46 -38 -58 -18 -5 7 -9 128 -9 269 0 274 4 295 46 265 15 -11 19 -30 22 -90
l4 -76 100 0 100 0 -4 90 c-4 81 -7 93 -34 127 -47 59 -93 77 -204 81 -85 3
-100 1 -146 -22z"/>
</g>
</svg>
